# ProBuilder 4.5.2
# https://unity3d.com/unity/features/worldbuilding/probuilder
# 4/07/2022 4:23:41 PM

mtllib ./Collider_Wall1.mtl
o Collider_Wall1

g Collider_Wall1
v -0.75 0 2.000298
v -1 0 2.000298
v -0.75 3 2.000298
v -1 3 2.000298
v -1 0 -0.25
v -1 0 -1
v -1 2.75 -0.25
v -1 2.25 -1
v -0.75 0 -1
v -0.75 2.25 -1
v -0.75 0 -0.25
v -0.75 2.75 -0.25
v -0.75 0 0.5000992
v -1 0 0.5000992
v -0.75 3 0.5000992
v -1 3 0.5000992
v -0.75 0 1.250198
v -1 0 1.250198
v -0.75 2.75 1.250198
v -1 2.75 1.250198

vt -0.75 0
vt -1 0
vt -0.75 3
vt -1 3
vt -0.25 0
vt -0.25 2.75
vt -1 2.25
vt 1 0
vt 0.75 0
vt 1 2.25
vt 0.75 2.25
vt 0.25 0
vt 0.25 2.75
vt 0.75 1.317413
vt 1 1.317413
vt 0.75 0.416025
vt 1 0.416025
vt -0.75 -1
vt -1 -1
vt -0.75 -0.25
vt -1 -0.25
vt -0.75 0.5000992
vt -1 0.5000992
vt -0.5000992 3
vt -0.5000992 0
vt 0.5000992 0
vt 0.5000992 3
vt 1 0.632349
vt 0.75 0.632349
vt 1 1.423012
vt 0.75 1.423012
vt -0.75 1.250198
vt -1 1.250198
vt -1.250198 2.75
vt -1.250198 0
vt 1.250198 0
vt 1.250198 2.75
vt 1 -0.4741285
vt 0.75 -0.4741285
vt 1 0.3165351
vt 0.75 0.3165351
vt -0.75 2.000298
vt -1 2.000298
vt -2.000298 3
vt -2.000298 0
vt 2.000298 0
vt 2.000298 3
vt 1 2.055581
vt 0.75 2.055581
vt 1 2.846244
vt 0.75 2.846244

vn 0 0 1
vn -1 0 0
vn 0 0 -1
vn 1 0 0
vn 0 0.8320503 -0.5547002
vn 0 -1 0
vn 0 0.9486958 -0.3161901
vn 0 0.9486958 0.3161901

usemtl Lit
f 3/3/1 4/4/1 2/2/1 1/1/1
f 7/6/2 8/7/2 6/2/2 5/5/2
f 8/10/3 10/11/3 9/9/3 6/8/3
f 10/10/4 12/13/4 11/12/4 9/8/4
f 10/16/5 8/17/5 7/15/5 12/14/5
f 11/20/6 5/21/6 6/19/6 9/18/6
f 13/22/6 14/23/6 5/21/6 11/20/6
f 15/24/4 13/25/4 11/12/4 12/13/4
f 14/26/2 16/27/2 7/6/2 5/5/2
f 16/30/7 15/31/7 12/29/7 7/28/7
f 17/32/6 18/33/6 14/23/6 13/22/6
f 19/34/4 17/35/4 13/25/4 15/24/4
f 18/36/2 20/37/2 16/27/2 14/26/2
f 20/40/8 19/41/8 15/39/8 16/38/8
f 1/42/6 2/43/6 18/33/6 17/32/6
f 3/44/4 1/45/4 17/35/4 19/34/4
f 2/46/2 4/47/2 20/37/2 18/36/2
f 4/50/7 3/51/7 19/49/7 20/48/7

